<?xml version="1.0" encoding="utf-8"?>
<!-- Generator: Adobe Illustrator 25.4.1, SVG Export Plug-In . SVG Version: 6.00 Build 0)  -->
<svg version="1.1" id="Capa_1" xmlns="http://www.w3.org/2000/svg" xmlns:xlink="http://www.w3.org/1999/xlink" x="0px" y="0px"
	 viewBox="0 0 1114.1 270.6" style="enable-background:new 0 0 1114.1 270.6;" xml:space="preserve">
<style type="text/css">
	.st0{fill:#666666;}
	.st1{fill:#999999;}
	.st2{fill:url(#SVGID_1_);}
	.st3{fill:url(#SVGID_00000059276820705676269240000000960775561837782717_);}
</style>
<g>
	<g>
		<g>
			<path class="st0" d="M459.4,120.1c1.9,0.6,2.9,1.9,2.9,3.9v0.3c0,1.4-0.6,2.5-1.7,3.3c-1.1,0.9-2.4,1.1-3.7,0.7
				c-2.6-0.9-5.2-1.3-8-1.3c-7.3,0-13.5,2.6-18.6,7.7c-5.1,5.2-7.7,11.4-7.7,18.6c0,7.2,2.6,13.4,7.7,18.6
				c5.2,5.2,11.4,7.7,18.6,7.7c2.8,0,5.5-0.4,8-1.2c1.3-0.4,2.6-0.3,3.7,0.5c1.1,0.8,1.7,1.9,1.7,3.4c0,2-1,3.3-2.9,3.9
				c-3.4,1.1-6.9,1.6-10.5,1.6c-9.6,0-17.8-3.4-24.6-10.2c-6.8-6.8-10.2-15-10.2-24.6c0-9.6,3.4-17.8,10.2-24.6
				c6.8-6.8,15-10.2,24.6-10.2C452.4,118.4,455.9,119,459.4,120.1z"/>
			<path class="st0" d="M533,128.6c6.8,6.8,10.2,15,10.2,24.6v30.6c0,1.1-0.4,2.1-1.2,2.9c-0.8,0.8-1.8,1.2-2.9,1.2h-0.2
				c-1.1,0-2.1-0.4-2.9-1.2c-0.8-0.8-1.2-1.8-1.2-2.9v-7.6c-8.8,7.8-17.6,11.7-26.3,11.7c-9.6,0-17.8-3.4-24.6-10.2
				c-6.8-6.8-10.2-15-10.2-24.6c0-9.6,3.4-17.8,10.2-24.6c6.8-6.8,15-10.2,24.6-10.2C518,118.4,526.2,121.8,533,128.6z M489.8,134.5
				c-5.1,5.2-7.7,11.4-7.7,18.6c0,7.3,2.6,13.5,7.7,18.6c5.2,5.1,11.4,7.7,18.6,7.7c7.3,0,13.5-2.6,18.6-7.7
				c5.2-5.2,7.7-11.4,7.7-18.6c0-7.2-2.6-13.4-7.7-18.6c-5.1-5.2-11.3-7.7-18.6-7.7C501.2,126.8,494.9,129.4,489.8,134.5z"/>
			<path class="st0" d="M586.1,118.4c1.2,0,2.2,0.4,3,1.2c0.8,0.8,1.1,1.8,1.1,3v0.1c0,1.2-0.4,2.1-1.1,2.9c-0.8,0.8-1.8,1.2-3,1.2
				h-3.8c-4.8,0-8.8,1.7-12.2,5c-3.3,3.4-5,7.4-5,12.2v39.7c0,1.1-0.4,2.1-1.2,2.9c-0.8,0.8-1.8,1.2-2.9,1.2h-0.2
				c-1.1,0-2.1-0.4-2.9-1.2c-0.8-0.8-1.2-1.8-1.2-2.9V144c0.1-7.1,2.6-13.2,7.5-18.2c5-5,11-7.5,18.2-7.5H586.1z"/>
			<path class="st0" d="M601.9,90.8c1.1,0,2.1,0.4,2.9,1.1c0.8,0.8,1.2,1.8,1.2,3v35.2c8.8-7.8,17.5-11.7,26.3-11.7
				c9.6,0,17.8,3.4,24.6,10.2c6.8,6.8,10.2,15,10.2,24.6c0,9.6-3.4,17.8-10.2,24.6c-6.8,6.8-15,10.2-24.6,10.2s-17.8-3.4-24.5-10.1
				c-6.8-6.8-10.2-14.9-10.2-24.4V94.9c0-1.2,0.4-2.2,1.2-3c0.8-0.8,1.8-1.1,2.9-1.1H601.9z M632.3,126.9c-7.3,0-13.5,2.6-18.6,7.7
				c-5.1,5.2-7.7,11.4-7.7,18.6c0,7.2,2.6,13.4,7.7,18.6c5.2,5.2,11.4,7.7,18.6,7.7c7.3,0,13.5-2.6,18.6-7.7
				c5.2-5.2,7.7-11.4,7.7-18.6c0-7.3-2.6-13.5-7.7-18.6C645.9,129.5,639.7,126.9,632.3,126.9z"/>
			<path class="st0" d="M711.2,118.4c9.6,0,17.8,3.4,24.6,10.2c6.8,6.8,10.2,15,10.2,24.6c0,9.6-3.4,17.8-10.2,24.6
				c-6.8,6.8-15,10.2-24.6,10.2c-9.6,0-17.8-3.4-24.6-10.2c-6.8-6.8-10.2-15-10.2-24.6c0-9.6,3.4-17.8,10.2-24.6
				C693.4,121.8,701.6,118.4,711.2,118.4z M711.2,126.9c-7.3,0-13.5,2.6-18.6,7.7c-5.1,5.2-7.7,11.4-7.7,18.6
				c0,7.2,2.6,13.4,7.7,18.6c5.2,5.2,11.4,7.7,18.6,7.7c7.3,0,13.5-2.6,18.6-7.7c5.2-5.2,7.7-11.4,7.7-18.6c0-7.3-2.6-13.5-7.7-18.6
				C724.7,129.5,718.6,126.9,711.2,126.9z"/>
			<path class="st0" d="M765.8,183.7c0,1.1-0.4,2.1-1.2,2.9c-0.8,0.8-1.8,1.2-2.9,1.2h-0.2c-1.1,0-2.1-0.4-2.9-1.2
				c-0.8-0.8-1.2-1.8-1.2-2.9v-36.8c0-7.9,2.8-14.6,8.3-20.2c5.6-5.6,12.3-8.3,20.2-8.3c7.9,0,14.6,2.8,20.1,8.3
				c5.6,5.6,8.3,12.3,8.3,20.2v36.8c0,1.1-0.4,2.1-1.2,2.9c-0.8,0.8-1.8,1.2-2.9,1.2h-0.1c-1.2,0-2.2-0.4-3-1.2
				c-0.8-0.8-1.2-1.8-1.2-2.9v-36.8c0-5.5-2-10.3-5.9-14.2c-3.9-3.9-8.7-5.9-14.2-5.9c-5.6,0-10.3,2-14.3,5.9
				c-3.9,3.9-5.9,8.7-5.9,14.2V183.7z"/>
			<path class="st1" d="M836.2,82.7c2.2,0,4.1,0.8,5.7,2.4c1.6,1.6,2.4,3.5,2.4,5.8v19.5h10.1c2.2,0,4.1,0.8,5.7,2.4
				c1.6,1.6,2.4,3.5,2.4,5.8v0.1c0,2.3-0.8,4.2-2.4,5.7c-1.6,1.6-3.5,2.4-5.7,2.4h-10.1v39.9c0,1.3,0.4,2.4,1.3,3.3
				c0.9,0.9,2,1.3,3.4,1.3h5.4c2.2,0,4.1,0.8,5.7,2.4c1.6,1.6,2.4,3.5,2.4,5.8v0.1c0,2.3-0.8,4.2-2.4,5.7c-1.6,1.6-3.5,2.4-5.7,2.4
				h-5.4c-5.8,0-10.8-2.1-15-6.2c-4.1-4.2-6.2-9.2-6.2-14.9V90.9c0-2.2,0.8-4.2,2.4-5.8c1.6-1.6,3.5-2.4,5.7-2.4H836.2z"/>
			<path class="st1" d="M944,132.9c0.5,1.1,0.8,2.3,0.8,3.4c0,0.9-0.2,1.9-0.5,2.8c-0.8,2.1-2.2,3.6-4.3,4.6
				c-6.3,2.8-14.5,6.6-24.8,11.2c-12.7,5.7-20.1,9.1-22.3,10.2c3.4,4.3,8.7,6.5,16,6.5c4.8,0,9.2-1.4,13.1-4.2
				c3.8-2.8,6.5-6.4,8-10.8c1.3-3.7,3.9-5.5,7.8-5.5c2.8,0,5,1.2,6.7,3.5c1,1.4,1.5,2.9,1.5,4.5c0,0.9-0.2,1.9-0.5,2.9
				c-2.6,7.7-7.3,13.9-13.9,18.6c-6.7,4.9-14.3,7.3-22.6,7.3c-10.7,0-19.8-3.8-27.4-11.4c-7.6-7.6-11.4-16.7-11.4-27.4
				s3.8-19.8,11.4-27.4c7.6-7.6,16.7-11.4,27.4-11.4c7.7,0,14.8,2.1,21.1,6.3C936.3,120.8,941,126.2,944,132.9z M908.8,126.9
				c-6.2,0-11.5,2.2-15.8,6.5c-4.3,4.4-6.5,9.6-6.5,15.8v0.5l37.6-16.9C920.8,128.9,915.7,126.9,908.8,126.9z"/>
			<path class="st1" d="M978.9,126.8c-2,0-3.6,0.7-5,2c-1.3,1.4-2,3.1-2,5c0,2.7,1.3,4.7,3.9,6.1c0.9,0.5,4.6,1.6,11.2,3.4
				c5.3,1.5,9.3,3.5,11.9,6c3.7,3.5,5.6,8.6,5.6,15.1c0,6.5-2.3,12-6.9,16.6c-4.6,4.6-10.2,6.9-16.6,6.9h-17.6
				c-2.2,0-4.1-0.8-5.7-2.4c-1.6-1.5-2.4-3.4-2.4-5.7v-0.1c0-2.2,0.8-4.2,2.4-5.8c1.6-1.6,3.5-2.4,5.7-2.4h18.2c2,0,3.6-0.7,5-2
				c1.3-1.3,2-3,2-5c0-2.5-1.3-4.3-3.8-5.6c-0.7-0.3-4.4-1.4-11.3-3.4c-5.3-1.6-9.3-3.6-11.9-6.2c-3.7-3.6-5.6-8.8-5.6-15.4
				c0-6.5,2.3-12,6.9-16.6c4.6-4.6,10.2-6.9,16.6-6.9h12.4c2.2,0,4.2,0.8,5.8,2.4c1.6,1.6,2.4,3.5,2.4,5.8v0.1
				c0,2.3-0.8,4.2-2.4,5.7c-1.6,1.6-3.5,2.4-5.8,2.4H978.9z"/>
			<path class="st1" d="M1023.6,82.7c2.2,0,4.1,0.8,5.7,2.4c1.6,1.6,2.4,3.5,2.4,5.8v19.5h10.1c2.2,0,4.1,0.8,5.7,2.4
				c1.6,1.6,2.4,3.5,2.4,5.8v0.1c0,2.3-0.8,4.2-2.4,5.7c-1.6,1.6-3.5,2.4-5.7,2.4h-10.1v39.9c0,1.3,0.4,2.4,1.3,3.3
				c0.9,0.9,2,1.3,3.4,1.3h5.4c2.2,0,4.1,0.8,5.7,2.4c1.6,1.6,2.4,3.5,2.4,5.8v0.1c0,2.3-0.8,4.2-2.4,5.7c-1.6,1.6-3.5,2.4-5.7,2.4
				h-5.4c-5.8,0-10.8-2.1-15-6.2c-4.1-4.2-6.2-9.2-6.2-14.9V90.9c0-2.2,0.8-4.2,2.4-5.8c1.6-1.6,3.5-2.4,5.7-2.4H1023.6z"/>
		</g>
	</g>
	<g>
		<linearGradient id="SVGID_1_" gradientUnits="userSpaceOnUse" x1="64.0865" y1="135.284" x2="157.3542" y2="135.284">
			<stop  offset="2.180466e-02" style="stop-color:#059EF8"/>
			<stop  offset="1" style="stop-color:#2EC761"/>
		</linearGradient>
		<path class="st2" d="M78.8,135.3c0-19.5,8.3-37,21.6-49.3c1.6-1.4-0.1-4-2-3.1c-20.2,8.8-34.4,28.9-34.4,52.4
			c0,23.5,14.1,43.6,34.4,52.4c1.9,0.8,3.6-1.7,2-3.1C87.2,172.3,78.8,154.8,78.8,135.3z"/>
		
			<linearGradient id="SVGID_00000018931154589651144070000005115231591565297024_" gradientUnits="userSpaceOnUse" x1="130.4893" y1="185.5483" x2="352.118" y2="116.1689">
			<stop  offset="3.409785e-07" style="stop-color:#059EF8"/>
			<stop  offset="0.9027" style="stop-color:#2EC761"/>
		</linearGradient>
		<path style="fill:url(#SVGID_00000018931154589651144070000005115231591565297024_);" d="M350.6,179.9h-5.8l9.7-8.6
			c0.1-0.1,0.2-0.2,0.3-0.3c2.9-2.9,4.5-6.7,4.5-10.8c0-4.1-1.6-8-4.5-10.9c-4.6-4.6-11.5-5.6-17.1-3.1l0,0c0,0-2.4,1-2.4-1.3
			c0,0,0,0,0-0.1c0.5-3.1,0.7-6.3,0.7-9.6c0-18.5-7.5-35.2-19.6-47.3c-12.1-12.1-28.8-19.6-47.3-19.6c-29.1,0-53.9,18.6-63.1,44.5
			l0-0.1c-1.2,3.3-3.3,6.4-5.9,9c-9.3,9.3-24.5,9.3-33.8,0c-0.8-0.8-1.6-1.5-2.5-2.1c-0.4-0.5-0.9-1-1.3-1.4c-4.4-4.4-10.4-7-17-7
			c-13.3,0-24.1,10.8-24.1,24.1c0,6.6,2.7,12.7,7,17c4.4,4.4,10.4,7,17,7c6.6,0,12.7-2.7,17-7c0.8-0.8,1.5-1.6,2.2-2.5
			c0.4-0.3,0.7-0.6,1-0.9l0.5-0.5c9.3-9.3,24.5-9.3,33.8,0c2.6,2.6,4.5,5.7,5.7,9l0.1,0c3.3,9.7,8.9,18.3,15.9,25.4
			c12.1,12.1,28.8,19.6,47.3,19.6s35.2-7.5,47.3-19.6c5.2-5.2,9.5-11.2,12.8-17.9l0,0c0,0,1-2.1,3.2-1.2c0,0,0,0,0.1,0
			c2.4,0.9,5.1,0.3,7-1.6l3.2-3.2c0.7-0.7,1.9-0.7,2.6,0c0.5,0.5,0.5,1,0.5,1.3c0,0.3-0.1,0.8-0.5,1.2l-17.9,15.7
			c-0.1,0.1-0.2,0.2-0.3,0.3c-2.7,2.7-3.5,6.7-2.1,10.2c1.4,3.5,4.8,5.8,8.6,5.8h16.8c3.7,0,6.7-3,6.7-6.7S354.3,179.9,350.6,179.9z
			 M284,150.2c-3.8,3.8-9.1,6.2-14.9,6.2c-5.8,0-11.1-2.4-14.9-6.2c-3.8-3.8-6.2-9.1-6.2-14.9c0-11.6,9.4-21,21-21
			c5.8,0,11.1,2.4,14.9,6.2c3.8,3.8,6.2,9.1,6.2,14.9C290.1,141.1,287.8,146.4,284,150.2z"/>
	</g>
</g>
</svg>
