<?xml version="1.0" encoding="utf-8"?>
<!-- Generator: Adobe Illustrator 25.4.1, SVG Export Plug-In . SVG Version: 6.00 Build 0)  -->
<svg version="1.1" id="Capa_1" xmlns="http://www.w3.org/2000/svg" xmlns:xlink="http://www.w3.org/1999/xlink" x="0px" y="0px"
	 viewBox="0 0 1086.8 661.6" style="enable-background:new 0 0 1086.8 661.6;" xml:space="preserve">
<style type="text/css">
	.st0{fill:url(#SVGID_1_);}
	.st1{fill:url(#SVGID_00000170277771355353805920000005336881147704504222_);}
	.st2{fill:#666666;}
	.st3{fill:#999999;}
</style>
<g>
	<g>
		
			<linearGradient id="SVGID_1_" gradientUnits="userSpaceOnUse" x1="189" y1="451.8476" x2="412.9367" y2="451.8476" gradientTransform="matrix(1 0 0 -1 0 664)">
			<stop  offset="2.180466e-02" style="stop-color:#059EF8"/>
			<stop  offset="1" style="stop-color:#2EC761"/>
		</linearGradient>
		<path class="st0" d="M224.4,212.2c0-46.8,20-88.9,51.9-118.3c3.7-3.4-0.2-9.5-4.8-7.5C223,107.6,189,155.9,189,212.2
			s34,104.7,82.5,125.7c4.7,2,8.5-4,4.8-7.5C244.4,301.1,224.4,259,224.4,212.2z"/>
		
			<linearGradient id="SVGID_00000047745670561510228220000001695033842137398949_" gradientUnits="userSpaceOnUse" x1="348.4356" y1="331.1298" x2="880.5679" y2="497.7103" gradientTransform="matrix(1 0 0 -1 0 664)">
			<stop  offset="3.409785e-07" style="stop-color:#059EF8"/>
			<stop  offset="0.9027" style="stop-color:#2EC761"/>
		</linearGradient>
		<path style="fill:url(#SVGID_00000047745670561510228220000001695033842137398949_);" d="M876.8,319.5h-14l23.4-20.6
			c0.2-0.2,0.5-0.4,0.7-0.7c7-6.9,10.9-16.2,10.9-26c0-9.9-3.8-19.1-10.8-26.1c-11.1-11.1-27.5-13.5-41-7.5v-0.1
			c0,0-5.7,2.3-5.7-3.2c0-0.1,0-0.1,0-0.1c1.1-7.5,1.7-15.2,1.7-23c0-44.4-18-84.6-47.1-113.7s-69.3-47.1-113.7-47.1
			c-69.9,0-129.4,44.6-151.5,106.9l0.1-0.2c-2.8,7.9-7.9,15.3-14.2,21.6c-22.4,22.4-58.7,22.4-81.1,0c-1.9-1.9-3.9-3.5-6-5
			c-1-1.2-2-2.3-3.1-3.4c-10.5-10.4-24.9-16.9-40.9-16.9c-31.9,0-57.8,25.9-57.8,57.8c0,16,6.5,30.4,16.9,40.9
			c10.4,10.4,24.9,16.9,40.9,16.9c15.9,0,30.4-6.5,40.9-16.9c1.9-1.9,3.7-4,5.3-6.1c0.9-0.7,1.7-1.5,2.5-2.3l1.3-1.3
			c22.4-22.4,58.7-22.4,81.1,0c6.3,6.3,10.8,13.7,13.6,21.6l0.2-0.1c8,23.2,21.3,44,38.3,61C596.6,355,636.8,373,681.2,373
			s84.6-18,113.7-47.1c12.5-12.4,22.8-26.9,30.7-42.9v0.1c0,0,2.3-4.9,7.7-2.8c0.1,0,0.1,0,0.2,0c5.7,2,12.3,0.8,16.9-3.8l7.6-7.6
			c1.7-1.7,4.6-1.7,6.3,0c1.1,1.1,1.3,2.3,1.3,3.2c0,0.8-0.2,1.9-1.1,2.9l-42.9,37.8c-0.2,0.2-0.5,0.4-0.7,0.6
			c-6.5,6.4-8.4,16-5,24.4c3.5,8.4,11.6,13.9,20.7,13.9h40.3c8.9,0,16.2-7.2,16.2-16.2S885.7,319.5,876.8,319.5z M716.9,247.9
			c-9.2,9.1-21.8,14.8-35.7,14.8c-14,0-26.6-5.7-35.7-14.8c-9.1-9.1-14.8-21.8-14.8-35.7c0-27.9,22.6-50.5,50.5-50.5
			c13.9,0,26.6,5.7,35.7,14.8c9.1,9.2,14.8,21.8,14.8,35.7C731.7,226.2,726,238.8,716.9,247.9z"/>
	</g>
	<g>
		<g>
			<path class="st2" d="M129.9,503.4c2.9,0.9,4.4,2.9,4.4,5.9v0.5c0,2.1-0.9,3.8-2.6,5c-1.7,1.3-3.6,1.6-5.6,1
				c-3.9-1.4-7.9-2-12.1-2c-11,0-20.4,3.9-28.3,11.7c-7.8,7.8-11.6,17.2-11.6,28.3c0,11,3.9,20.3,11.6,28.2
				c7.8,7.8,17.2,11.7,28.3,11.7c4.2,0,8.3-0.6,12.1-1.8c2-0.7,3.9-0.4,5.6,0.8s2.6,2.9,2.6,5.1c0,3-1.5,5-4.4,5.9
				c-5.2,1.6-10.5,2.4-15.9,2.4c-14.6,0-27-5.1-37.3-15.4c-10.3-10.3-15.4-22.7-15.4-37.3s5.1-27,15.4-37.3
				C87,506,99.4,500.9,114,500.9C119.4,500.9,124.7,501.7,129.9,503.4z"/>
			<path class="st2" d="M241.6,516.3c10.3,10.3,15.4,22.7,15.4,37.3V600c0,1.7-0.6,3.2-1.8,4.4s-2.7,1.8-4.4,1.8h-0.3
				c-1.7,0-3.2-0.6-4.4-1.8s-1.8-2.7-1.8-4.4v-11.5c-13.3,11.8-26.6,17.8-39.9,17.8c-14.6,0-27-5.1-37.3-15.4
				c-10.3-10.3-15.4-22.7-15.4-37.3s5.1-27,15.4-37.3c10.3-10.3,22.7-15.4,37.3-15.4C218.9,500.9,231.3,506,241.6,516.3z M176,525.4
				c-7.8,7.8-11.6,17.2-11.6,28.2s3.9,20.4,11.6,28.3c7.8,7.8,17.2,11.6,28.3,11.6c11,0,20.4-3.9,28.2-11.6
				c7.8-7.8,11.7-17.2,11.7-28.3c0-11-3.9-20.3-11.7-28.2c-7.7-7.8-17.1-11.7-28.2-11.7C193.3,513.6,183.9,517.5,176,525.4z"/>
			<path class="st2" d="M322.1,500.9c1.8,0,3.3,0.6,4.5,1.8c1.2,1.2,1.7,2.7,1.7,4.5v0.2c0,1.8-0.6,3.2-1.7,4.4
				c-1.2,1.2-2.7,1.8-4.5,1.8h-5.8c-7.2,0-13.4,2.6-18.5,7.7c-5,5.1-7.6,11.3-7.7,18.5V600c0,1.7-0.6,3.2-1.8,4.4
				c-1.2,1.2-2.7,1.8-4.4,1.8h-0.3c-1.7,0-3.2-0.6-4.4-1.8c-1.2-1.2-1.8-2.7-1.8-4.4v-60.2c0.1-10.8,3.9-20,11.3-27.6
				c7.6-7.6,16.7-11.3,27.6-11.3L322.1,500.9L322.1,500.9z"/>
			<path class="st2" d="M346.1,459c1.7,0,3.2,0.6,4.4,1.7c1.2,1.2,1.8,2.7,1.8,4.5v53.4c13.3-11.8,26.6-17.8,39.9-17.8
				c14.6,0,27,5.1,37.3,15.4c10.3,10.3,15.4,22.7,15.4,37.3s-5.1,27-15.4,37.3s-22.7,15.4-37.3,15.4c-14.6,0-26.9-5.1-37.2-15.3
				c-10.3-10.3-15.4-22.6-15.5-37v-88.6c0-1.8,0.6-3.3,1.8-4.5c1.2-1.2,2.7-1.7,4.4-1.7h0.4V459z M392.2,513.8
				c-11,0-20.4,3.9-28.3,11.7c-7.8,7.8-11.6,17.2-11.6,28.3c0,11,3.9,20.3,11.6,28.2c7.8,7.8,17.2,11.7,28.3,11.7
				c11.1,0,20.5-3.9,28.2-11.7c7.8-7.8,11.7-17.2,11.7-28.2s-3.9-20.4-11.7-28.3C412.7,517.7,403.3,513.8,392.2,513.8z"/>
			<path class="st2" d="M511.8,500.9c14.6,0,27,5.1,37.3,15.4s15.4,22.7,15.4,37.3s-5.1,27-15.4,37.3
				c-10.3,10.3-22.7,15.4-37.3,15.4c-14.6,0-27-5.1-37.3-15.4c-10.3-10.3-15.4-22.7-15.4-37.3s5.1-27,15.4-37.3
				S497.3,500.9,511.8,500.9z M511.8,513.8c-11,0-20.4,3.9-28.3,11.7c-7.8,7.8-11.6,17.2-11.6,28.3c0,11,3.9,20.3,11.6,28.2
				c7.8,7.8,17.2,11.7,28.3,11.7s20.5-3.9,28.2-11.7c7.8-7.8,11.7-17.2,11.7-28.2s-3.9-20.4-11.7-28.3
				C532.3,517.7,522.9,513.8,511.8,513.8z"/>
			<path class="st2" d="M594.6,600c0,1.7-0.6,3.2-1.8,4.4s-2.7,1.8-4.4,1.8h-0.3c-1.7,0-3.2-0.6-4.4-1.8s-1.8-2.7-1.8-4.4v-55.8
				c0-12,4.2-22.2,12.7-30.6c8.4-8.4,18.6-12.7,30.6-12.7c11.9,0,22.1,4.2,30.5,12.7c8.4,8.4,12.7,18.6,12.7,30.6V600
				c0,1.7-0.6,3.2-1.8,4.4s-2.7,1.8-4.4,1.8H662c-1.8,0-3.3-0.6-4.5-1.8s-1.8-2.7-1.8-4.4v-55.8c0-8.4-3-15.5-8.9-21.5
				c-6-6-13.2-9-21.5-9c-8.4,0-15.7,3-21.6,9c-5.9,6-8.9,13.2-8.9,21.5V600H594.6z"/>
			<path class="st3" d="M701.4,446.8c3.3,0,6.2,1.2,8.7,3.6c2.4,2.5,3.7,5.4,3.7,8.8v29.5H729c3.3,0,6.2,1.2,8.7,3.7
				c2.4,2.4,3.7,5.4,3.7,8.8v0.2c0,3.5-1.2,6.4-3.7,8.7c-2.4,2.5-5.3,3.7-8.7,3.7h-15.3v60.5c0,2,0.7,3.6,2,5c1.4,1.4,3.1,2,5.1,2
				h8.2c3.3,0,6.2,1.2,8.7,3.7c2.4,2.4,3.7,5.4,3.7,8.8v0.2c0,3.5-1.2,6.4-3.7,8.7c-2.4,2.4-5.3,3.7-8.7,3.7h-8.2
				c-8.8,0-16.4-3.1-22.8-9.4c-6.3-6.3-9.4-13.9-9.4-22.7v-115c0-3.4,1.2-6.3,3.7-8.8c2.4-2.4,5.3-3.6,8.7-3.6h0.4V446.8z"/>
			<path class="st3" d="M864.8,522.9c0.8,1.7,1.2,3.4,1.2,5.2c0,1.4-0.3,2.9-0.8,4.3c-1.2,3.2-3.3,5.5-6.5,6.9
				c-9.5,4.3-22,9.9-37.6,16.9c-19.3,8.7-30.6,13.8-33.9,15.4c5.2,6.5,13.2,9.8,24.2,9.8c7.3,0,13.9-2.1,19.8-6.4
				c5.8-4.2,9.8-9.7,12.1-16.3c2-5.6,5.9-8.4,11.8-8.4c4.2,0,7.6,1.8,10.1,5.3c1.6,2.2,2.3,4.5,2.3,6.8c0,1.4-0.3,2.9-0.8,4.4
				c-4,11.6-11.1,21-21.1,28.2c-10.2,7.4-21.6,11.1-34.3,11.1c-16.2,0-30-5.7-41.5-17.2s-17.2-25.3-17.2-41.5s5.7-30,17.2-41.5
				s25.3-17.2,41.5-17.2c11.7,0,22.4,3.2,32,9.6C853,504.5,860.1,512.7,864.8,522.9z M811.4,513.8c-9.4,0-17.4,3.3-24,9.9
				c-6.5,6.6-9.8,14.6-9.8,24v0.7l57.1-25.6C829.6,516.8,821.9,513.8,811.4,513.8z"/>
			<path class="st3" d="M917.6,513.6c-3,0-5.5,1-7.6,3.1c-2,2.1-3.1,4.6-3.1,7.6c0,4.1,2,7.1,5.9,9.2c1.4,0.7,7,2.5,17,5.1
				c8.1,2.3,14.1,5.3,18.1,9.1c5.6,5.4,8.5,13,8.5,23c0,9.8-3.5,18.2-10.4,25.2c-7,6.9-15.4,10.4-25.2,10.4h-26.6
				c-3.3,0-6.2-1.2-8.7-3.7c-2.4-2.3-3.7-5.2-3.7-8.7v-0.2c0-3.4,1.2-6.3,3.7-8.8c2.4-2.4,5.3-3.7,8.7-3.7h27.7c3,0,5.5-1,7.6-3.1
				c2-2,3.1-4.6,3.1-7.6c0-3.7-1.9-6.6-5.8-8.5c-1-0.5-6.7-2.2-17.1-5.1c-8.1-2.4-14.1-5.5-18.1-9.4c-5.6-5.5-8.5-13.3-8.5-23.4
				c0-9.8,3.5-18.2,10.4-25.1c7-7,15.4-10.5,25.2-10.5h18.8c3.4,0,6.3,1.2,8.8,3.7c2.4,2.4,3.7,5.4,3.7,8.8v0.2
				c0,3.5-1.2,6.4-3.7,8.7c-2.4,2.5-5.4,3.7-8.8,3.7L917.6,513.6L917.6,513.6z"/>
			<path class="st3" d="M985.5,446.8c3.3,0,6.2,1.2,8.7,3.6c2.4,2.5,3.7,5.4,3.7,8.8v29.5h15.3c3.3,0,6.2,1.2,8.7,3.7
				c2.4,2.4,3.7,5.4,3.7,8.8v0.2c0,3.5-1.2,6.4-3.7,8.7c-2.4,2.5-5.3,3.7-8.7,3.7h-15.3v60.5c0,2,0.7,3.6,2,5c1.4,1.4,3.1,2,5.1,2
				h8.2c3.3,0,6.2,1.2,8.7,3.7c2.4,2.4,3.7,5.4,3.7,8.8v0.2c0,3.5-1.2,6.4-3.7,8.7c-2.4,2.4-5.3,3.7-8.7,3.7h-8.2
				c-8.8,0-16.4-3.1-22.8-9.4c-6.3-6.3-9.4-13.9-9.4-22.7v-115c0-3.4,1.2-6.3,3.7-8.8c2.4-2.4,5.3-3.6,8.7-3.6h0.3V446.8z"/>
		</g>
	</g>
</g>
</svg>
